<?xml version="1.0" standalone="no"?>
<!DOCTYPE svg PUBLIC "-//W3C//DTD SVG 20010904//EN"
 "http://www.w3.org/TR/2001/REC-SVG-20010904/DTD/svg10.dtd">
<svg version="1.0" xmlns="http://www.w3.org/2000/svg"
 width="474.000000pt" height="474.000000pt" viewBox="0 0 474.000000 474.000000"
 preserveAspectRatio="xMidYMid meet">
<metadata>
Created by potrace 1.14, written by Peter Selinger 2001-2017
</metadata>
<g transform="translate(0.000000,474.000000) scale(0.100000,-0.100000)"
fill="#000000" stroke="none">
<path d="M498 4382 l-108 -3 -1 -92 c-1 -51 -2 -127 -3 -169 -2 -82 0 -84 50
-77 4 0 11 -5 15 -13 7 -10 9 -10 9 0 0 6 5 12 11 12 5 0 8 -3 6 -7 -3 -5 62
-8 144 -8 82 0 149 4 149 9 0 5 10 1 22 -10 12 -10 18 -13 14 -6 -10 17 235
15 246 -2 5 -7 8 -6 8 4 0 8 131 -183 290 -423 160 -241 290 -442 290 -447 0
-5 4 -10 8 -12 11 -4 332 -496 332 -508 0 -6 4 -10 8 -10 4 0 21 -22 37 -50
16 -27 32 -50 35 -50 3 0 13 9 23 20 10 12 22 18 28 14 7 -4 9 2 5 17 -3 13
-3 18 0 11 3 -6 10 -9 15 -6 6 3 5 12 -3 22 -12 16 -11 16 6 2 18 -14 19 -13
13 3 -4 12 -3 16 4 11 8 -4 9 1 4 16 -6 19 -4 21 13 16 17 -6 19 -2 16 26 -1
18 0 27 3 21 7 -18 23 -16 23 2 0 8 -5 15 -12 15 -6 0 -9 2 -6 5 9 10 35 -5
35 -20 0 -8 -9 -17 -19 -21 -13 -4 -17 -12 -14 -29 4 -19 1 -22 -12 -18 -11 5
-14 2 -9 -10 4 -10 -3 -21 -19 -32 -16 -10 -23 -22 -20 -31 4 -10 2 -12 -6 -8
-6 4 -8 3 -4 -4 3 -6 -2 -15 -11 -21 -16 -9 -16 -10 4 -8 12 0 20 4 17 8 -2 4
1 9 6 11 6 2 13 12 14 23 2 11 9 19 15 17 6 -1 11 5 11 14 0 9 5 12 13 8 6 -4
9 -4 5 1 -4 4 -3 14 3 22 6 7 8 13 5 13 -4 0 -2 9 4 20 6 11 16 17 22 14 7 -4
8 -3 4 4 -4 7 -1 12 6 12 9 0 9 3 -2 10 -13 9 -13 10 0 11 8 1 19 1 23 0 5 -1
6 3 2 9 -3 6 -9 8 -13 6 -4 -2 -16 2 -27 10 -10 8 -14 14 -8 14 7 0 15 -5 18
-10 7 -12 25 -4 25 11 0 6 -4 8 -8 5 -4 -2 -14 0 -22 6 -12 8 -12 9 3 4 16 -5
25 8 10 17 -5 2 -2 2 5 1 16 -4 16 13 0 19 -7 2 -1 4 14 4 23 0 25 -1 12 -14
-16 -16 -18 -29 -6 -37 12 -7 62 71 62 95 0 16 -3 17 -19 7 -15 -9 -17 -16
-10 -30 7 -13 6 -16 -4 -12 -19 7 -17 53 3 46 8 -3 12 -2 8 3 -4 4 -3 16 3 27
8 14 7 24 -3 36 -12 15 -11 16 5 3 9 -7 17 -9 17 -3 0 14 -26 33 -34 25 -4 -4
-4 1 0 11 6 15 4 17 -7 11 -10 -7 -9 -2 3 17 17 26 17 27 -2 25 -13 -1 -19 -6
-15 -15 3 -7 0 -10 -6 -7 -6 4 -8 13 -5 20 2 7 -1 18 -7 25 -9 10 -9 11 1 6
19 -11 15 30 -5 50 -10 10 -18 20 -18 23 0 3 -10 20 -23 38 -12 17 -22 36 -22
43 0 6 -5 8 -11 5 -7 -5 -4 -14 7 -26 10 -11 12 -19 6 -19 -7 0 -12 -5 -12
-11 0 -6 7 -8 16 -5 14 6 15 4 4 -9 -11 -13 -15 -13 -21 -3 -5 7 -6 21 -3 30
3 12 1 17 -8 15 -7 -2 -9 -2 -4 1 5 3 -2 11 -15 18 -13 7 -19 13 -14 14 18 0
17 50 0 50 -23 0 -65 30 -65 47 0 8 -5 11 -12 7 -7 -4 -10 -3 -5 1 4 5 16 9
28 10 13 1 16 -2 9 -9 -15 -15 -12 -26 7 -19 11 4 14 3 9 -5 -5 -8 -2 -10 10
-5 15 5 15 7 0 15 -9 5 -14 13 -11 17 2 5 -2 14 -10 21 -8 7 -12 16 -9 21 3 5
0 8 -7 7 -7 -2 -13 4 -14 12 0 8 -8 16 -19 18 -11 3 -16 0 -11 -7 3 -6 11 -8
17 -5 5 4 5 -4 -2 -16 -11 -20 -10 -22 4 -17 8 3 18 2 20 -2 3 -5 -5 -8 -17
-7 -15 1 -21 7 -19 19 2 9 -3 15 -10 13 -7 -1 -10 -1 -5 1 4 3 -3 13 -15 23
-19 15 -21 21 -10 31 15 16 16 49 1 49 -5 0 -8 4 -5 8 7 11 -25 9 -44 -3 -13
-7 -13 -6 -2 7 8 10 9 19 3 22 -5 3 -12 1 -14 -4 -3 -6 -4 -5 -3 2 2 7 8 13
14 13 7 0 12 3 12 8 0 4 0 12 0 18 0 6 -7 3 -16 -5 -18 -18 -34 -21 -34 -5 0
5 4 8 9 5 5 -3 12 1 15 10 9 23 8 24 -14 24 -11 0 -20 4 -20 10 0 5 8 7 18 4
16 -5 16 -5 -1 6 -9 6 -15 15 -12 21 10 16 -13 10 -31 -8 -13 -13 -16 -14 -12
-3 3 8 -2 21 -11 28 -14 10 -13 11 4 5 20 -6 20 -6 1 16 -15 16 -22 19 -29 9
-6 -10 -8 -9 -4 2 2 8 -7 25 -19 39 -12 13 -20 31 -16 39 4 11 2 13 -9 7 -11
-7 -12 -6 -3 6 12 17 16 62 5 54 -5 -2 -14 1 -20 9 -9 11 -9 15 1 19 10 4 10
6 1 6 -7 1 -20 15 -28 31 -9 18 -20 28 -27 24 -8 -5 -9 -1 -5 11 5 11 0 23
-13 35 -11 9 -16 21 -12 25 4 5 1 5 -5 1 -7 -4 -21 -9 -31 -11 -15 -3 -18 3
-17 38 1 44 18 54 56 36 9 -5 19 -5 23 -2 4 4 16 8 28 10 18 3 19 1 7 -14 -13
-16 -12 -17 2 -5 9 7 21 12 25 11 5 -1 11 -1 14 1 20 7 50 9 46 2 -6 -10 30
-9 40 1 10 10 26 9 20 -2 -6 -9 29 -7 58 5 14 5 17 4 11 -5 -6 -10 -3 -11 13
-2 27 14 35 14 26 -1 -6 -10 -4 -10 7 0 15 14 33 16 24 3 -3 -5 0 -13 6 -17 7
-4 9 -3 6 3 -4 6 0 14 9 17 10 4 13 2 8 -7 -5 -9 -4 -9 6 0 8 8 20 9 37 2 16
-6 22 -5 18 1 -8 13 1 13 28 -1 12 -7 19 -8 15 -4 -9 9 14 35 26 28 4 -3 1 6
-9 20 -10 15 -12 28 -6 31 13 8 10 45 -4 43 -12 -2 -25 -18 -25 -31 0 -5 7 -3
15 4 10 9 15 9 15 1 0 -6 -3 -11 -8 -11 -4 0 -13 -9 -20 -21 -10 -16 -10 -20
0 -17 7 2 13 -2 13 -7 0 -6 -6 -9 -13 -7 -8 2 -11 -1 -7 -7 4 -7 0 -8 -10 -4
-13 5 -14 7 -3 14 10 7 10 9 -2 9 -12 1 -11 3 3 11 9 5 17 15 17 21 0 6 -7 5
-17 -3 -17 -13 -17 -12 -4 4 12 15 12 20 2 27 -11 6 -11 9 0 13 11 4 11 6 0 6
-11 1 -10 5 5 15 10 8 19 23 19 33 0 10 7 18 15 17 9 -1 17 8 18 20 0 11 -2
16 -6 11 -8 -12 -48 -35 -59 -35 -5 0 0 5 10 11 17 10 24 30 10 28 -20 -3 -24
2 -13 16 10 12 10 15 -1 15 -11 0 -11 2 1 10 13 9 13 11 0 20 -12 8 -12 10 -1
10 10 0 11 3 2 14 -8 10 -9 16 -1 21 6 4 9 1 8 -6 -2 -6 3 -14 11 -17 8 -2 11
0 8 5 -3 5 -2 15 2 22 6 9 11 10 15 2 4 -6 1 -11 -6 -11 -9 0 -9 -3 2 -10 11
-7 11 -10 2 -10 -7 0 -10 -4 -7 -10 3 -5 0 -7 -7 -5 -9 4 -14 -2 -14 -15 0
-18 9 -25 29 -21 5 1 6 -3 2 -8 -3 -6 -13 -7 -23 -4 -15 6 -15 5 -3 -10 13
-16 14 -16 27 0 11 15 11 20 -3 31 -15 10 -12 16 7 14 3 0 5 13 5 29 -1 33
-19 57 -29 40 -5 -8 -13 -8 -26 -1 -18 10 -1343 20 -1622 12z m1632 -191 c0
-6 -4 -12 -8 -15 -5 -3 -9 1 -9 9 0 8 4 15 9 15 4 0 8 -4 8 -9z m-520 -183 c0
-6 -6 -5 -15 2 -8 7 -15 14 -15 16 0 2 7 1 15 -2 8 -4 15 -11 15 -16z m84 -99
c-3 -5 -9 -7 -14 -4 -4 3 -10 2 -13 -2 -2 -5 -2 -3 -1 4 2 6 -2 13 -8 15 -7 3
-8 10 -4 17 6 9 12 8 27 -5 10 -9 16 -21 13 -25z m16 -33 c-7 -7 -14 -6 -21 1
-9 9 -7 12 9 10 14 -1 18 -5 12 -11z m11 -20 c-7 -9 -8 -17 -2 -20 5 -3 11 -1
13 6 3 8 6 9 11 1 13 -21 -21 -22 -40 -1 -10 12 -13 18 -6 15 6 -4 14 -3 18 3
3 5 9 10 12 10 3 0 0 -6 -6 -14z m38 -50 c9 -10 8 -15 -3 -19 -11 -4 -13 -1
-9 10 5 12 3 14 -7 8 -9 -5 -11 -4 -6 3 9 15 11 15 25 -2z m16 -36 c-3 -5 -12
-10 -18 -10 -7 0 -6 4 3 10 19 12 23 12 15 0z m112 -192 c-3 -8 -6 -5 -6 6 -1
11 2 17 5 13 3 -3 4 -12 1 -19z m105 -129 c-2 -8 -9 -18 -15 -24 -6 -5 -9 -6
-5 -1 4 5 3 17 -2 26 -8 15 -6 18 8 15 9 -1 16 -9 14 -16z m141 -226 c-3 -7
-6 -13 -8 -13 -2 0 -5 6 -8 13 -3 8 1 14 8 14 7 0 11 -6 8 -14z m91 -102 c3
-5 -1 -11 -9 -14 -9 -4 -12 -1 -8 9 6 16 10 17 17 5z m36 -61 c0 -20 -27 -15
-45 9 -18 25 -18 25 0 11 17 -14 18 -13 11 4 -7 19 -6 19 14 1 11 -10 20 -21
20 -25z"/>
<path d="M1660 3936 c0 -2 8 -10 18 -17 15 -13 16 -12 3 4 -13 16 -21 21 -21
13z"/>
<path d="M3013 4382 l-313 -2 0 -170 c0 -94 3 -170 8 -171 4 0 16 -2 27 -5 11
-2 34 -5 50 -5 17 -1 35 -6 42 -11 7 -5 14 -5 18 2 3 5 11 10 16 10 6 0 7 -6
3 -12 -5 -9 -2 -9 9 1 14 11 17 11 17 0 0 -9 3 -10 8 -3 4 6 18 10 32 10 14 0
32 4 39 9 10 5 12 4 7 -3 -4 -7 -3 -12 3 -12 5 0 12 6 15 13 3 8 9 6 20 -7 16
-20 16 -20 16 0 0 14 2 16 9 5 7 -11 9 -11 13 0 4 12 7 12 21 0 13 -10 17 -10
17 -1 0 9 4 9 13 2 8 -7 18 -7 27 -2 20 13 33 12 25 0 -4 -6 4 -5 19 1 19 9
29 9 40 0 8 -6 16 -8 18 -3 1 5 11 6 21 3 17 -6 16 -10 -11 -44 -17 -20 -112
-167 -213 -325 -100 -158 -214 -336 -254 -397 -39 -60 -102 -157 -139 -215
-37 -58 -111 -172 -165 -255 -54 -82 -115 -177 -136 -210 -21 -33 -75 -116
-120 -185 -45 -69 -117 -179 -160 -245 -43 -66 -108 -165 -145 -220 -36 -55
-78 -120 -92 -145 -14 -25 -49 -76 -77 -113 -27 -38 -66 -96 -86 -130 -19 -34
-52 -87 -74 -117 -21 -30 -74 -109 -116 -175 -43 -66 -81 -122 -84 -125 -4 -3
-18 -23 -32 -45 -40 -60 -136 -162 -185 -196 -24 -17 -68 -38 -97 -48 -63 -22
-157 -35 -157 -22 0 5 -9 7 -20 4 -13 -3 -20 0 -20 8 0 11 -2 11 -10 -1 -5 -8
-10 -10 -10 -4 0 7 -7 15 -16 18 -8 3 -12 2 -9 -4 3 -6 -1 -7 -9 -4 -9 3 -13
11 -9 18 4 7 1 7 -9 -1 -18 -16 -32 -5 -17 13 9 11 4 12 -21 9 -18 -2 -29 -1
-26 2 3 3 -6 16 -19 29 -27 24 -35 45 -10 24 8 -6 18 -9 23 -6 6 3 9 -2 8 -12
0 -9 5 -16 12 -14 8 1 11 -2 6 -9 -5 -8 -3 -9 6 -4 10 6 9 11 -4 21 -10 7 -17
16 -17 21 1 4 -3 9 -9 9 -23 3 -24 5 -10 14 13 9 13 10 0 10 -13 0 -13 2 0 11
13 9 12 10 -3 5 -9 -3 -17 -1 -17 4 0 6 -9 10 -19 10 -11 0 -23 5 -27 11 -4 8
1 9 17 5 l24 -7 -22 19 -21 19 29 0 c17 0 25 -3 19 -7 -12 -8 -3 -40 12 -40 6
0 6 6 -1 14 -8 10 -9 16 -2 21 7 4 7 11 0 23 -7 12 -7 26 1 47 6 17 11 32 11
35 0 3 8 13 16 23 9 9 11 17 5 17 -6 0 -13 -6 -15 -12 -4 -10 -6 -10 -6 -1 -1
7 -7 10 -15 7 -23 -9 -27 12 -5 34 17 19 99 68 107 63 6 -4 -5 -16 -16 -18
-29 -4 -24 -13 6 -11 24 2 32 7 32 22 0 19 0 19 22 0 12 -10 18 -13 13 -5 -6
11 -4 13 8 8 8 -3 21 0 27 8 8 10 18 11 35 5 18 -7 28 -5 40 6 14 14 19 11 16
-9 -1 -5 3 -5 9 -2 6 4 9 13 6 21 -3 7 -1 16 5 20 7 4 7 10 0 18 -6 7 -6 17
-1 26 5 9 5 19 -2 27 -7 9 -7 13 1 13 6 0 11 4 11 8 0 4 -8 8 -18 8 -14 0 -19
-8 -19 -28 0 -23 3 -26 15 -15 13 11 14 9 1 -11 -12 -19 -12 -24 -1 -31 11 -7
10 -9 -3 -14 -11 -5 -14 -3 -9 5 5 8 2 9 -9 5 -9 -3 -19 -2 -22 4 -4 5 -1 8 6
7 6 -2 14 3 17 11 2 8 0 11 -6 7 -6 -3 -14 -1 -18 5 -4 8 -3 9 4 5 7 -4 12 -3
12 3 0 5 -5 13 -10 16 -8 5 -8 11 0 20 6 7 7 15 3 17 -4 3 -2 3 5 2 18 -5 15
14 -5 25 -12 7 -14 10 -4 11 11 0 11 3 1 15 -9 10 -9 15 -1 15 10 0 15 -14 12
-34 -1 -5 5 -6 12 -3 11 4 14 -1 11 -16 -2 -12 -2 -16 2 -9 3 6 11 9 16 6 7
-4 8 -2 4 5 -12 18 -14 61 -5 67 5 3 5 13 -1 23 -6 12 -5 22 3 32 7 7 3 6 -8
-2 -24 -19 -52 -21 -52 -3 0 7 4 11 9 8 4 -3 8 -1 8 5 0 5 -5 11 -10 13 -6 2
-2 13 10 26 21 22 14 32 -8 10 -9 -9 -12 -9 -12 0 0 8 -24 12 -79 12 -163 0
-303 -46 -409 -133 -59 -48 -127 -134 -149 -186 -23 -54 -53 -201 -53 -262 0
-69 32 -198 63 -253 13 -23 30 -52 37 -66 30 -52 151 -158 218 -192 37 -18 70
-37 73 -41 3 -5 9 -8 13 -7 9 2 69 -11 81 -18 10 -6 22 -8 80 -16 17 -2 30 -5
30 -6 0 -8 103 -5 114 4 8 6 12 7 9 1 -3 -5 1 -17 10 -25 14 -13 15 -12 10 2
-7 18 21 35 31 20 3 -5 20 -7 36 -5 17 2 45 5 63 6 29 2 31 3 15 16 -15 11
-15 13 -2 8 9 -3 26 1 38 9 16 11 26 12 41 4 13 -7 20 -7 20 0 0 5 -6 10 -12
10 -9 0 -8 3 2 9 17 11 30 5 26 -12 -1 -7 -1 -9 1 -4 3 4 9 5 13 2 5 -3 12 0
16 6 5 8 3 9 -7 4 -12 -7 -12 -5 -1 6 11 12 14 12 22 -1 8 -12 10 -11 10 7 0
12 4 25 10 28 5 3 7 0 4 -8 -3 -8 1 -14 10 -14 8 0 13 4 10 9 -3 4 2 8 11 8
10 0 13 -5 9 -12 -4 -7 4 -3 18 10 13 12 27 19 30 16 10 -9 68 38 61 49 -4 7
1 8 13 3 15 -5 16 -4 7 5 -13 13 -7 39 9 39 7 0 6 -5 -1 -14 -9 -11 -8 -15 4
-20 9 -3 14 -2 10 3 -3 5 0 11 6 13 8 3 6 9 -4 20 -15 14 -15 17 -1 22 8 3 13
2 10 -2 -2 -4 2 -18 10 -32 12 -21 14 -22 12 -5 -2 11 2 19 8 18 6 -1 11 5 11
12 0 11 -4 12 -14 4 -9 -8 -13 -8 -13 0 0 6 5 11 11 11 5 0 7 6 4 13 -3 6 2 3
11 -9 18 -20 18 -20 53 15 36 36 37 39 40 65 1 10 10 13 29 10 l27 -4 -28 15
c-27 16 -27 16 -10 40 10 13 22 25 27 25 5 0 3 -7 -4 -15 -10 -12 -10 -15 0
-15 10 0 10 -3 0 -15 -9 -10 -9 -15 -1 -15 6 0 11 5 11 11 0 5 4 8 8 5 4 -2
13 3 19 13 10 15 8 21 -12 31 l-23 12 22 22 c11 11 27 19 35 18 12 -3 13 -1 2
11 -19 24 5 31 29 7 14 -14 20 -16 20 -6 0 7 -10 21 -23 30 -17 12 -18 14 -3
9 14 -4 17 -3 12 6 -5 7 5 23 26 41 26 24 30 32 19 39 -11 7 -9 10 8 16 16 5
21 12 16 23 -4 12 -3 14 5 6 6 -6 13 -21 15 -34 3 -18 2 -21 -7 -12 -16 16
-29 15 -22 -2 3 -8 0 -17 -5 -21 -6 -3 -8 -11 -5 -17 4 -7 2 -8 -4 -4 -7 4
-12 2 -12 -3 0 -6 6 -11 13 -11 8 0 7 -4 -3 -11 -13 -9 -13 -10 0 -6 8 2 16 9
16 15 1 7 2 17 3 23 0 5 5 7 11 4 6 -3 7 1 4 10 -4 10 -2 15 7 13 8 -2 13 3
11 11 -2 9 3 11 15 7 15 -6 14 -4 -3 15 -19 21 -19 22 1 15 16 -5 21 -1 22 14
1 11 -3 20 -8 20 -6 0 -8 -4 -5 -8 7 -11 -31 -8 -41 3 -5 4 -3 5 3 2 6 -4 16
5 23 19 7 15 16 22 23 18 7 -5 9 -2 5 9 -3 9 1 21 11 29 16 12 16 11 2 -6 -14
-18 -13 -19 4 -13 16 7 17 5 5 -9 -16 -20 -20 -42 -8 -50 5 -3 9 2 9 10 0 9 6
16 13 16 8 0 7 4 -3 10 -12 8 -11 11 8 16 21 6 21 7 5 21 -10 8 -13 12 -7 9 8
-4 11 7 9 34 -1 22 1 40 6 40 5 0 7 -12 4 -27 -5 -32 8 -62 19 -44 4 6 2 11
-3 11 -6 0 -11 5 -11 10 0 6 7 10 16 8 10 -2 19 3 21 10 3 6 0 12 -7 12 -6 0
-8 -6 -4 -12 4 -7 3 -9 -1 -5 -12 11 -15 37 -4 37 5 0 9 5 9 11 0 6 -7 8 -17
5 -16 -6 -16 -6 0 12 9 10 15 21 12 24 -3 3 3 11 12 19 16 12 17 12 6 -2 -13
-16 -8 -29 10 -29 6 0 7 3 4 7 -4 3 0 18 9 31 16 24 16 25 -2 18 -16 -5 -16
-4 2 11 12 10 20 26 19 36 -3 15 -1 16 11 6 13 -10 14 -8 10 15 -3 15 -1 24 5
21 5 -4 7 -11 4 -16 -4 -5 2 -9 12 -9 17 -1 17 -1 0 -11 -9 -6 -14 -15 -11
-21 4 -6 3 -8 -3 -5 -6 4 -17 -1 -24 -10 -12 -15 -12 -16 4 -10 10 4 16 3 12
-2 -3 -5 -1 -13 5 -16 6 -4 9 -3 8 2 -5 18 14 53 25 47 7 -4 9 -4 5 1 -11 12
21 67 34 59 7 -4 8 -3 4 4 -4 6 1 20 11 30 10 10 26 32 36 50 17 30 17 31 -1
41 -11 6 -23 7 -27 3 -5 -4 -5 -1 -1 6 4 7 11 10 16 7 4 -3 14 3 21 12 12 15
12 16 -4 10 -15 -6 -16 -4 -7 14 6 11 16 17 21 13 6 -3 9 0 8 7 -1 8 1 22 5
31 6 14 11 15 26 5 14 -8 16 -14 7 -20 -9 -6 -8 -7 3 -4 8 2 17 12 18 22 2 10
0 15 -6 11 -6 -3 -14 -1 -18 5 -4 7 -3 9 3 6 6 -4 14 0 17 9 9 25 7 27 -11 13
-9 -8 1 11 21 41 21 30 42 54 47 52 5 -1 9 2 9 8 0 5 -6 10 -12 11 -7 0 -3 5
10 11 14 7 21 17 17 27 -3 11 0 10 10 -3 16 -21 11 -38 -8 -30 -8 3 -13 -4
-13 -16 0 -14 7 -20 21 -20 16 0 17 2 5 10 -13 8 -8 14 11 12 3 -1 5 9 5 21
-1 12 2 28 8 35 7 10 6 13 -6 10 -9 -1 -17 2 -17 7 0 6 7 9 16 7 8 -2 12 1 9
7 -3 5 -1 21 6 36 11 24 13 24 22 8 6 -10 11 -21 11 -25 0 -5 3 -8 8 -8 4 0 9
0 12 0 3 0 0 10 -6 22 -12 22 -11 22 7 8 10 -8 16 -11 12 -6 -7 8 0 18 36 58
18 20 18 21 1 15 -15 -6 -16 -5 -5 8 7 8 17 12 23 8 5 -3 7 -1 3 5 -3 6 2 17
12 24 22 15 24 74 3 87 -9 6 -5 8 14 8 16 0 22 -3 15 -7 -8 -5 -4 -9 10 -13
12 -3 19 -3 16 0 -3 3 6 21 21 39 14 19 22 34 18 34 -4 0 4 11 19 25 15 14 21
25 14 25 -8 1 -6 6 6 15 10 7 15 18 12 24 -4 5 3 15 14 21 11 6 18 15 15 19
-3 5 2 11 10 15 16 6 21 46 6 46 -5 0 -8 -8 -7 -17 0 -10 -9 -22 -21 -28 -13
-5 -23 -13 -23 -18 0 -4 6 -5 13 -2 6 4 1 -3 -12 -14 -14 -13 -18 -21 -10 -21
9 -1 8 -4 -3 -11 -13 -7 -23 -7 -35 1 -15 9 -14 10 7 4 23 -6 24 -5 11 10 -8
9 -10 16 -5 15 21 -4 30 2 32 21 4 49 5 50 19 38 7 -6 17 -8 20 -4 4 4 2 11
-6 15 -10 6 -9 10 4 15 10 3 23 2 30 -4 9 -7 12 -2 12 20 0 27 -2 29 -17 15
-14 -13 -17 -13 -17 -1 0 8 5 14 11 13 6 -1 10 6 10 15 -1 10 2 16 6 13 8 -5
35 45 31 58 -1 5 3 6 9 2 6 -3 7 -11 4 -17 -5 -8 -1 -9 10 -5 14 6 15 3 5 -14
-6 -12 -17 -18 -25 -15 -14 5 -19 -5 -8 -17 10 -10 44 12 44 29 0 8 4 12 10 9
6 -4 7 1 3 11 -5 12 -3 15 6 9 10 -6 11 -3 2 12 -6 11 -8 23 -4 26 3 4 0 13
-7 22 -7 8 -11 15 -9 16 30 6 38 5 50 -3 11 -8 10 -9 -3 -4 -10 3 -20 1 -23
-4 -4 -6 -1 -10 6 -10 9 0 9 -3 0 -14 -9 -11 -8 -15 4 -20 10 -3 13 -2 10 5
-8 12 14 41 25 34 4 -2 7 5 6 18 -1 13 4 21 12 19 8 -1 11 2 8 7 -4 5 0 16 9
24 13 13 13 16 -1 21 -9 3 -20 4 -25 1 -4 -3 -3 8 2 25 6 16 17 30 25 30 16 0
19 17 4 22 -6 2 0 9 12 17 20 13 22 12 11 -1 -11 -13 -8 -15 18 -16 29 -1 30
0 13 14 -11 9 -14 13 -8 10 8 -4 11 3 10 19 -1 18 -5 24 -16 20 -11 -5 -12 -3
-4 5 9 9 18 8 37 -5 24 -15 26 -15 35 2 5 10 7 24 4 32 -3 9 0 11 9 6 8 -5 11
-5 7 0 -4 4 0 14 10 21 10 8 12 13 5 14 -20 0 -57 -41 -45 -49 7 -4 8 -12 2
-21 -8 -13 -10 -12 -10 3 0 10 -4 16 -9 12 -15 -9 -25 15 -12 28 9 9 10 7 5
-7 -5 -14 -4 -17 5 -12 7 5 11 16 8 26 -3 13 0 17 9 13 10 -4 12 0 8 11 -3 9
-1 16 6 16 6 0 8 -4 5 -10 -3 -5 -1 -10 4 -10 6 0 11 4 11 10 0 5 6 7 14 4 8
-3 17 0 22 7 5 9 2 10 -9 6 -10 -3 -17 -2 -17 3 0 5 -8 7 -17 4 -15 -5 -15 -4
1 6 15 10 16 14 5 22 -11 8 -11 9 1 5 8 -2 14 -9 13 -14 -1 -6 9 -10 23 -10
14 0 22 2 19 5 -3 3 2 13 11 23 19 21 12 51 -10 43 -18 -7 -31 12 -15 22 8 5
9 3 4 -6 -5 -8 -3 -11 6 -8 8 3 13 11 12 19 -4 21 60 61 83 53 10 -4 3 6 -16
21 -28 21 -30 26 -12 20 22 -6 23 -5 12 17 -10 21 -10 22 4 5 8 -11 12 -25 9
-33 -3 -8 0 -14 7 -14 8 0 11 9 7 26 -3 18 -1 24 9 20 24 -9 25 12 2 28 -12 9
-18 16 -13 17 6 0 18 2 28 4 14 3 16 0 7 -10 -8 -9 -7 -14 3 -18 10 -4 14 3
13 26 -1 18 -5 38 -9 44 -6 9 -3 11 8 7 11 -5 14 -2 9 12 -4 14 -3 15 4 6 7
-11 10 -10 16 3 8 23 8 27 -3 20 -5 -3 -13 0 -17 6 -4 8 -3 9 4 5 11 -7 17 7
12 29 -1 5 2 7 6 2 15 -15 11 -53 -9 -86 -14 -24 -16 -32 -6 -29 8 3 13 11 11
18 -2 7 3 10 11 7 11 -4 13 0 9 15 -3 14 -1 19 6 14 6 -3 13 -2 16 3 4 5 2 12
-4 16 -13 8 -13 25 1 25 5 0 7 -4 4 -10 -3 -5 -2 -10 4 -10 19 0 21 19 2 25
-19 6 -26 45 -9 45 8 0 12 -16 9 -32 0 -5 4 -8 10 -8 7 0 9 10 7 25 -3 14 -1
28 5 32 6 3 7 1 3 -5 -4 -7 -1 -12 9 -12 9 0 13 5 10 10 -3 6 1 13 9 16 9 3
13 10 10 15 -3 5 0 9 7 9 7 0 10 3 6 6 -7 7 15 33 24 28 4 -2 12 3 19 10 9 12
7 17 -10 26 -11 6 -25 8 -30 5 -6 -4 -5 5 1 19 12 26 14 26 49 -2 3 -3 -6 -1
-19 3 -16 5 -21 4 -17 -4 11 -17 30 -13 49 9 9 11 12 20 7 20 -6 0 -9 5 -7 11
1 6 -4 14 -11 16 -14 6 -12 -18 3 -30 6 -5 4 -7 -5 -4 -8 2 -14 10 -13 16 2 6
-2 11 -7 11 -6 0 -1 9 10 20 11 11 20 25 20 31 0 5 5 7 12 3 8 -5 9 0 5 17 -6
22 -5 23 8 6 15 -20 22 -13 19 21 0 12 2 22 7 22 5 0 6 6 3 14 -3 8 0 17 7 22
18 11 60 14 54 4 -3 -5 -13 -6 -22 -3 -11 4 -14 3 -9 -5 11 -18 33 -15 41 6
14 31 14 45 -2 71 -12 19 -8 17 16 -9 l33 -35 -22 40 c-20 36 -20 38 -3 23 11
-10 24 -18 29 -18 5 0 3 4 -5 9 -7 5 -15 23 -17 40 -3 23 2 33 17 41 11 6 16
16 13 22 -4 7 -3 8 5 4 6 -4 8 -12 5 -18 -5 -8 -1 -9 11 -4 14 5 16 4 7 -7 -7
-8 -11 -16 -9 -18 1 -2 -4 2 -10 10 -9 11 -13 11 -13 2 0 -7 -5 -9 -11 -5 -7
4 -10 1 -7 -7 3 -8 10 -13 16 -12 6 2 9 -4 5 -13 -5 -13 -8 -13 -15 -2 -8 10
-9 10 -6 -1 6 -20 28 -26 28 -8 0 8 7 18 16 21 8 3 12 10 9 16 -3 6 1 13 9 16
9 3 14 10 11 14 -3 5 3 13 12 19 16 9 15 10 -4 8 -13 -1 -23 -5 -23 -10 0 -5
-7 -4 -15 3 -8 7 -15 18 -14 24 0 7 2 6 6 -1 9 -23 23 -13 19 13 -4 21 -2 24
9 14 8 -6 11 -18 8 -26 -4 -10 0 -12 11 -8 9 4 14 9 12 12 -3 3 2 11 12 19 16
13 15 14 -5 8 -28 -8 -39 12 -19 34 9 10 16 24 16 32 1 10 3 9 11 -3 5 -10 15
-18 20 -18 6 0 7 4 4 10 -3 5 0 7 8 4 8 -3 21 2 30 10 19 19 31 21 21 4 -6
-10 -5 -10 7 -1 12 10 18 10 27 1 9 -9 12 -9 12 0 0 7 5 12 11 12 5 0 8 -4 5
-8 -6 -10 24 -9 41 1 6 4 14 3 18 -3 4 -7 12 -7 25 0 24 13 33 13 24 -1 -5 -8
-1 -8 14 0 26 14 35 14 27 1 -3 -5 -1 -10 4 -10 6 0 11 5 11 11 0 8 6 7 17 -2
11 -10 14 -10 9 -1 -9 15 6 16 22 0 9 -9 12 -9 12 0 0 7 5 12 11 12 5 0 8 -4
5 -8 -2 -4 4 -8 14 -8 10 0 16 4 14 8 -7 11 8 10 25 -1 9 -6 22 -6 33 0 13 7
18 6 18 -3 0 -10 2 -10 9 1 7 11 9 11 14 0 4 -10 6 -10 6 -1 1 6 6 12 12 12 5
0 7 -4 4 -10 -3 -5 -1 -10 4 -10 6 0 11 6 11 13 0 9 3 8 9 -2 7 -11 9 -11 14
0 5 12 7 12 15 0 6 -8 12 -9 15 -3 4 5 25 8 47 6 38 -3 52 7 30 21 -7 5 -8 11
-1 19 6 7 6 17 1 26 -12 18 -13 33 -2 27 4 -3 7 6 7 19 0 13 -3 24 -7 24 -8 0
-12 -16 -9 -32 0 -5 -4 -8 -9 -8 -7 0 -7 -7 0 -22 11 -22 10 -22 -4 -4 -11 13
-12 24 -6 36 5 10 6 20 3 24 -4 4 -12 -4 -19 -16 -12 -23 -12 -23 -11 4 1 14
5 24 10 21 9 -5 9 11 0 21 -10 10 -11 46 -1 40 11 -7 10 3 -3 28 -7 13 -7 18
-1 14 6 -4 10 2 9 14 -1 11 -5 20 -11 20 -5 0 -1 10 10 22 19 21 19 21 0 14
-19 -6 -19 -6 -4 11 16 17 14 18 -25 21 -67 4 -1032 7 -1374 4z m1434 -298 c8
3 11 1 8 -5 -4 -5 -16 -7 -27 -3 -14 4 -18 2 -14 -5 4 -6 13 -11 21 -11 8 0
17 -4 20 -10 4 -7 -2 -7 -18 -1 -14 6 -27 8 -28 6 -2 -2 -4 12 -5 31 -1 32 0
33 14 13 8 -11 20 -18 29 -15z m-811 -349 c2 -12 -2 -13 -18 -4 -16 9 -18 13
-7 20 15 9 22 5 25 -16z m-152 -277 c-3 -4 -10 -5 -18 -2 -7 3 -20 -10 -31
-31 -11 -19 -27 -35 -35 -35 -9 0 -22 -6 -29 -12 -11 -11 -11 -9 0 9 7 11 18
19 25 16 7 -2 20 9 29 26 9 18 11 31 5 31 -5 0 -10 -5 -10 -12 0 -6 -3 -9 -6
-5 -13 13 7 25 40 24 19 -1 33 -5 30 -9z m-74 -38 c0 -5 -2 -10 -4 -10 -3 0
-8 5 -11 10 -3 6 -1 10 4 10 6 0 11 -4 11 -10z m-130 -198 c0 -5 -7 -9 -15 -9
-8 0 -12 4 -9 9 3 4 9 8 15 8 5 0 9 -4 9 -8z m-81 -130 c-7 -3 -20 -10 -28
-16 -12 -9 -12 -8 -1 11 8 13 20 19 29 15 13 -5 13 -6 0 -10z m-42 -116 c-2
-6 -12 -10 -22 -8 -12 2 -15 -1 -9 -10 6 -10 4 -10 -9 1 -9 7 -15 17 -12 21 8
12 56 9 52 -4z m-238 -326 c4 0 13 6 20 13 11 10 11 8 0 -10 -10 -16 -16 -19
-26 -11 -16 13 -17 4 -3 -23 10 -17 9 -18 -14 -8 -22 10 -23 14 -10 26 8 8 15
22 15 31 1 15 2 15 6 0 2 -10 8 -18 12 -18z m-59 -116 c0 -2 -9 0 -20 6 -11 6
-20 13 -20 16 0 2 9 0 20 -6 11 -6 20 -13 20 -16z m-206 -266 c-5 -8 -2 -9 9
-5 9 3 19 2 22 -2 7 -12 -16 -27 -45 -29 -19 -1 -21 1 -10 8 8 5 11 10 6 10
-5 0 -3 7 4 15 15 18 24 20 14 3z m-40 -72 c-3 -8 -1 -17 5 -21 6 -3 11 1 11
9 0 9 6 16 13 16 8 0 7 4 -3 10 -9 6 -10 10 -3 10 21 0 22 -15 4 -39 -17 -22
-18 -22 -36 -5 -11 12 -14 19 -6 22 6 2 8 9 5 14 -4 7 -2 8 4 4 6 -4 9 -13 6
-20z m-47 -62 c-3 -4 -2 -15 3 -25 8 -14 4 -24 -16 -44 -14 -14 -30 -25 -36
-23 -14 5 -10 23 5 24 6 1 16 2 21 3 6 0 1 7 -10 15 -18 14 -18 14 0 13 10 -1
21 4 24 12 3 8 0 11 -7 7 -6 -4 -11 -3 -11 3 0 5 6 12 13 14 18 8 21 8 14 1z
m-62 -115 c-4 -5 -1 -9 4 -9 7 0 7 -7 -1 -20 -17 -26 -47 -26 -45 -1 1 16 5
18 19 10 19 -10 26 5 8 16 -6 4 -8 11 -4 16 3 5 10 7 15 3 5 -3 7 -10 4 -15z
m-285 -479 c-5 -9 -23 -32 -39 -49 -17 -18 -31 -37 -31 -41 0 -4 -7 -14 -17
-21 -15 -13 -15 -12 0 17 9 17 23 34 32 37 8 4 15 11 15 17 0 6 -12 3 -27 -6
-19 -11 -22 -11 -11 -2 10 8 14 19 10 23 -4 5 -1 4 7 0 11 -6 13 -4 8 8 -7 18
17 36 45 34 12 -1 14 -5 8 -17z m-1211 -29 c2 -1 -2 -8 -9 -16 -6 -8 -8 -20
-4 -26 5 -8 3 -9 -5 -5 -7 5 -10 15 -7 23 4 11 2 13 -9 10 -14 -6 -29 6 -20
15 4 4 35 3 54 -1z m1114 -56 c-3 -9 -8 -14 -10 -11 -3 3 -2 9 2 15 9 16 15
13 8 -4z m-1161 -177 c-7 -7 -12 -8 -12 -2 0 14 12 26 19 19 2 -3 -1 -11 -7
-17z m-92 -2 c0 -3 -4 -8 -10 -11 -5 -3 -10 -1 -10 4 0 6 5 11 10 11 6 0 10
-2 10 -4z m-166 -143 c-3 9 -2 17 4 17 13 0 10 -17 -11 -56 -9 -17 -13 -34
-10 -38 4 -3 1 -6 -5 -6 -7 0 -11 11 -10 24 1 14 6 22 10 20 4 -3 8 0 8 7 0 6
-8 9 -19 6 -13 -3 -18 -1 -14 9 2 7 12 10 20 7 13 -5 14 -2 3 18 l-11 24 20
-25 c14 -16 19 -18 15 -7z m1 -173 c7 -12 -2 -12 -30 0 -19 8 -19 9 2 9 12 1
25 -3 28 -9z m1025 -140 c0 -5 -5 -10 -11 -10 -5 0 -7 5 -4 10 3 6 8 10 11 10
2 0 4 -4 4 -10z m-82 -54 c-1 -14 -5 -23 -9 -20 -4 2 -10 0 -14 -6 -3 -5 1
-10 10 -10 10 0 4 -10 -17 -29 -29 -26 -34 -27 -42 -13 -6 10 -5 17 2 20 7 2
9 8 6 14 -4 5 3 5 16 -2 20 -11 21 -10 15 9 -4 13 -2 21 5 21 6 0 8 5 4 12 -4
7 -3 8 4 4 7 -4 12 -1 12 8 0 9 2 16 5 16 3 0 4 -11 3 -24z m-182 -160 c0 -13
-3 -22 -5 -20 -2 2 -11 -5 -18 -16 -10 -15 -21 -18 -39 -14 -14 4 -23 2 -22
-2 2 -5 0 -10 -4 -11 -19 -7 -10 13 10 22 12 5 22 13 22 17 0 5 5 8 11 8 5 0
7 -4 4 -10 -3 -5 -2 -10 3 -10 5 0 15 14 22 30 15 36 18 37 16 6z m-381 -155
c-9 -8 -36 -10 -30 -2 2 4 11 8 20 8 8 0 13 -3 10 -6z"/>
<path d="M2650 2246 c7 -7 13 -7 20 0 6 6 3 10 -10 10 -13 0 -16 -4 -10 -10z"/>
<path d="M2190 1539 c0 -5 -4 -7 -10 -4 -6 3 -7 -1 -4 -10 5 -12 9 -13 20 -4
16 13 18 29 4 29 -5 0 -10 -5 -10 -11z"/>
<path d="M1585 700 c-3 -5 -2 -10 4 -10 5 0 13 5 16 10 3 6 2 10 -4 10 -5 0
-13 -4 -16 -10z"/>
<path d="M4438 4369 c-4 -9 -1 -22 5 -28 9 -10 9 -12 -2 -9 -7 2 -16 -3 -19
-11 -3 -10 0 -11 9 -5 12 6 12 5 1 -9 -12 -14 -11 -16 7 -14 11 1 23 7 26 15
2 7 0 10 -5 7 -13 -8 -13 1 1 27 7 13 7 18 1 14 -6 -3 -12 2 -14 11 -3 16 -4
16 -10 2z"/>
<path d="M4431 4276 c-11 -13 -11 -19 -1 -31 10 -12 10 -15 0 -15 -10 0 -10
-3 0 -15 11 -13 10 -14 -5 -9 -15 6 -16 5 -4 -15 16 -24 18 -25 39 -11 10 6
11 10 3 10 -7 0 -13 7 -13 16 0 8 4 13 9 9 5 -3 13 0 17 6 4 7 3 9 -4 5 -17
-10 -24 11 -11 35 6 12 7 19 1 15 -6 -3 -12 -1 -14 5 -2 7 -9 5 -17 -5z"/>
<path d="M2150 4202 c0 -7 5 -12 10 -12 6 0 10 -5 10 -11 0 -5 -4 -8 -9 -5 -5
3 -14 -1 -21 -9 -16 -19 0 -19 26 -1 18 14 18 16 2 33 -11 10 -18 13 -18 5z"/>
<path d="M1640 4010 c-14 -38 0 -60 21 -33 8 10 9 14 2 10 -7 -4 -13 0 -16 10
-3 10 -6 16 -7 13z"/>
<path d="M3760 3985 c-7 -9 -11 -17 -9 -19 8 -8 59 6 59 16 0 6 -7 7 -16 4 -8
-3 -12 -2 -9 4 10 16 -11 11 -25 -5z"/>
<path d="M1795 3760 c-3 -5 -1 -10 6 -10 8 0 9 -4 1 -13 -9 -10 -1 -23 33 -57
24 -24 42 -47 39 -52 -3 -4 3 -5 12 -1 16 6 16 7 0 18 -9 7 -16 15 -16 19 0
16 -69 105 -75 96z m46 -62 l22 -33 -27 27 c-24 25 -32 38 -22 38 3 0 15 -15
27 -32z"/>
<path d="M3571 3683 c-3 -57 -7 -67 -33 -82 -32 -18 -35 -33 -11 -52 14 -12
16 -12 8 0 -6 11 -4 13 11 7 15 -6 17 -5 7 5 -7 7 -13 16 -13 21 0 4 6 6 13 4
6 -1 8 -1 4 2 -4 2 2 13 14 23 12 10 17 19 11 19 -7 0 -12 4 -12 10 0 5 7 7
15 4 11 -5 13 -2 8 12 -4 12 -3 15 5 10 17 -10 15 2 -2 20 -19 18 -25 18 -25
-3z"/>
<path d="M1965 3500 c3 -5 8 -10 11 -10 2 0 4 5 4 10 0 6 -5 10 -11 10 -5 0
-7 -4 -4 -10z"/>
<path d="M2004 3419 c-9 -15 10 -31 29 -23 14 5 14 8 2 20 -16 17 -22 17 -31
3z"/>
<path d="M2118 3263 c7 -3 16 -2 19 1 4 3 -2 6 -13 5 -11 0 -14 -3 -6 -6z"/>
<path d="M2159 3228 c-6 -21 -5 -38 1 -38 5 0 8 9 7 20 -1 17 -5 26 -8 18z"/>
<path d="M3190 3060 c0 -13 11 -13 30 0 12 8 11 10 -7 10 -13 0 -23 -4 -23
-10z"/>
<path d="M3169 3044 c-5 -16 -3 -30 5 -36 16 -11 28 3 15 18 -10 12 -9 13 4 9
8 -4 17 -3 20 2 3 4 -6 9 -19 9 -13 1 -25 0 -25 -2z"/>
<path d="M2276 3018 c3 -5 10 -6 15 -3 13 9 11 12 -6 12 -8 0 -12 -4 -9 -9z"/>
<path d="M2300 2980 c0 -6 7 -10 15 -10 8 0 15 2 15 4 0 2 -7 6 -15 10 -8 3
-15 1 -15 -4z"/>
<path d="M2334 2931 c30 -32 32 -37 10 -45 -14 -5 -15 -4 -4 9 7 8 8 15 3 15
-5 0 -15 -11 -21 -24 -9 -20 -8 -24 6 -21 9 2 22 4 28 4 16 1 13 61 -4 61 -8
0 -12 6 -9 13 3 8 -3 14 -15 14 -19 2 -19 0 6 -26z"/>
<path d="M3020 2803 c0 -15 18 -35 23 -27 3 5 -1 15 -9 22 -8 7 -14 9 -14 5z"/>
<path d="M2966 2725 c-28 -22 -28 -45 0 -45 9 0 14 10 14 28 0 18 3 23 9 14 7
-11 9 -11 14 2 10 25 -6 26 -37 1z m4 -25 c0 -5 -5 -10 -11 -10 -5 0 -7 5 -4
10 3 6 8 10 11 10 2 0 4 -4 4 -10z"/>
<path d="M1087 2522 c-59 -59 -107 -110 -107 -114 0 -5 91 -97 215 -216 2 -2
16 3 32 12 15 8 24 15 19 16 -5 0 -1 9 9 20 10 11 22 17 28 13 7 -4 8 1 3 13
-5 14 -4 16 5 7 13 -13 3 -37 -12 -28 -5 4 -9 2 -9 -4 0 -15 18 -23 25 -11 4
6 10 8 15 5 5 -3 12 0 16 6 5 8 3 9 -6 4 -10 -6 -12 -4 -7 8 3 9 1 19 -4 23
-13 7 28 54 48 54 7 0 12 3 10 8 -1 4 3 7 8 7 6 0 9 -3 8 -7 -5 -15 28 -8 33
6 3 8 13 12 22 9 15 -4 15 -3 2 6 -8 6 -23 8 -34 5 -12 -4 -17 -2 -14 6 2 6 6
10 9 8 3 -2 13 3 22 10 12 10 17 10 23 1 4 -8 3 -9 -4 -5 -7 4 -12 2 -12 -3 0
-15 17 -14 27 2 12 20 12 37 0 34 -7 -1 -11 4 -10 10 2 7 -3 12 -10 10 -6 -1
-11 4 -9 11 1 8 -2 11 -7 8 -5 -4 -11 0 -14 6 -2 7 -8 9 -13 5 -5 -5 3 -19 19
-31 24 -19 26 -24 12 -29 -9 -4 -14 -3 -10 3 3 6 0 13 -9 16 -21 8 -28 34 -15
50 9 12 9 13 -4 9 -8 -4 -18 -1 -23 6 -4 8 -3 10 4 5 8 -5 10 -2 6 8 -3 8 -14
18 -25 21 -10 4 -19 11 -19 16 0 5 -4 9 -10 9 -18 0 -10 -18 10 -25 11 -4 17
-11 14 -17 -4 -7 -2 -8 4 -4 8 5 10 1 5 -10 -5 -15 -7 -14 -16 2 -6 11 -16 23
-24 27 -7 5 -11 18 -9 32 3 17 -1 26 -15 30 -10 4 -19 15 -19 26 0 11 -5 17
-10 14 -6 -4 -8 -10 -5 -15 3 -4 -2 -11 -10 -14 -9 -3 -20 3 -27 14 -7 11 -15
20 -18 20 -3 0 -53 -49 -113 -108z m183 57 c0 -5 4 -8 8 -5 4 2 9 -5 9 -16 1
-11 1 -19 0 -17 -1 2 -11 14 -21 27 -11 12 -14 22 -8 22 7 0 12 -5 12 -11z"/>
<path d="M3521 2514 l-104 -105 108 -109 c62 -62 114 -106 121 -103 7 3 12 9
11 13 -1 4 3 8 8 8 6 0 9 -4 7 -9 -1 -5 5 -9 14 -9 9 0 12 -5 8 -12 -4 -7 -3
-8 5 -4 9 6 9 11 0 22 -6 8 -8 14 -3 14 5 0 4 4 -3 8 -8 5 -4 15 12 34 20 23
24 24 29 11 7 -16 -12 -36 -25 -27 -4 2 -7 -5 -6 -16 1 -10 7 -22 14 -24 8 -3
10 1 6 11 -5 12 -3 14 8 8 8 -4 11 -5 7 -1 -8 10 23 47 34 40 4 -3 5 2 1 11
-4 12 -8 13 -13 5 -5 -8 -9 -6 -14 6 -3 9 -4 19 -1 22 3 3 5 0 5 -8 0 -10 4
-10 17 1 10 8 14 9 10 2 -4 -6 -2 -15 4 -19 8 -5 10 1 7 20 -3 14 1 34 8 43 7
10 14 14 14 9 0 -4 9 2 19 15 14 17 17 29 10 41 -5 10 -6 18 -2 18 4 0 -5 12
-22 26 -16 14 -24 23 -17 19 7 -4 12 1 12 14 0 12 -5 21 -11 21 -5 0 -8 4 -5
8 2 4 -7 9 -22 10 l-27 2 30 -20 c25 -16 26 -19 8 -17 -12 0 -20 4 -17 8 2 4
-1 9 -8 11 -7 3 -13 18 -13 34 0 16 -4 30 -9 31 -5 1 -12 7 -17 14 -4 7 -15
14 -23 15 -9 1 -14 -2 -10 -7 3 -5 10 -7 15 -3 5 3 8 0 7 -8 -2 -7 5 -12 16
-11 13 1 15 -2 8 -9 -8 -8 -22 -2 -47 21 -20 17 -41 31 -48 31 -7 0 -59 -48
-116 -106z"/>
<path d="M3755 2550 c3 -5 8 -10 11 -10 2 0 4 5 4 10 0 6 -5 10 -11 10 -5 0
-7 -4 -4 -10z"/>
<path d="M2100 2540 c0 -5 5 -10 11 -10 5 0 7 5 4 10 -3 6 -8 10 -11 10 -2 0
-4 -4 -4 -10z"/>
<path d="M2810 2500 c0 -5 5 -10 11 -10 5 0 7 5 4 10 -3 6 -8 10 -11 10 -2 0
-4 -4 -4 -10z"/>
<path d="M3814 2468 c-4 -7 -4 -10 1 -6 9 8 40 -20 32 -29 -4 -3 -2 -14 3 -23
7 -13 5 -21 -5 -30 -8 -7 -12 -16 -9 -21 5 -8 -10 -13 -29 -10 -5 1 -6 -3 -3
-8 4 -5 2 -11 -3 -13 -4 -1 -5 -12 0 -23 7 -19 8 -19 8 2 1 12 5 25 11 28 6 3
7 -1 4 -12 -3 -10 2 -7 10 7 8 14 15 21 16 16 0 -17 44 37 45 56 1 13 -2 15
-11 8 -8 -8 -13 -6 -18 5 -4 11 -2 14 7 9 6 -4 4 2 -6 13 -9 11 -14 24 -10 29
5 5 4 6 -1 2 -5 -4 -15 -3 -22 3 -9 7 -14 6 -20 -3z m58 -91 c-12 -7 -19 -17
-15 -22 4 -4 2 -5 -6 0 -12 7 -11 10 4 22 11 7 24 13 29 13 6 -1 1 -6 -12 -13z"/>
<path d="M2794 2445 c4 -35 16 -44 16 -12 0 14 -4 28 -9 32 -5 3 -8 -6 -7 -20z"/>
<path d="M1360 2322 c-8 -2 -23 -13 -32 -22 -14 -15 -15 -20 -4 -29 16 -14 40
7 26 24 -6 7 -3 11 10 11 10 0 16 -5 13 -11 -3 -5 0 -4 8 3 16 14 1 32 -21 24z"/>
<path d="M1252 2204 c-1 -14 2 -23 8 -19 6 3 10 1 10 -6 0 -7 3 -9 6 -6 4 4 1
14 -7 24 -9 11 -10 14 -2 9 7 -4 21 -2 30 4 16 11 16 11 1 6 -10 -3 -20 -1
-23 4 -11 18 -21 11 -23 -16z"/>
<path d="M2754 2072 c-43 -64 -100 -148 -126 -185 l-48 -68 102 -159 c57 -88
196 -300 309 -472 113 -172 214 -329 225 -348 10 -19 25 -41 33 -50 13 -13
-16 -15 -267 -18 l-282 -2 0 -170 0 -170 35 0 c21 0 35 -5 35 -12 0 -9 4 -8
10 2 9 13 10 13 10 0 0 -12 2 -12 9 -1 6 9 10 10 16 2 5 -9 10 -9 21 0 8 6 14
7 14 2 0 -5 9 -9 20 -9 11 0 20 4 20 9 0 4 6 5 13 0 17 -11 30 -11 45 0 8 6
12 5 12 -4 0 -12 2 -12 9 0 5 8 11 9 15 3 5 -8 41 -10 41 -2 0 1 10 3 23 4 12
2 22 -2 22 -7 0 -6 5 -6 13 -1 14 11 37 11 54 1 6 -4 15 -2 19 4 4 8 9 7 15
-2 7 -11 9 -11 9 -1 0 9 5 10 18 3 11 -6 24 -6 32 -1 9 5 19 5 27 -2 9 -7 13
-7 13 2 0 10 3 10 15 0 11 -9 15 -9 15 -1 0 9 5 9 20 1 15 -8 20 -8 20 2 0 9
3 9 10 -2 8 -12 11 -13 19 -1 6 10 10 10 16 1 6 -9 10 -9 16 1 7 12 9 12 9 0
0 -11 3 -11 15 -1 12 10 15 10 15 -1 0 -12 2 -12 9 0 5 8 11 9 15 3 7 -11 24
-11 45 2 7 5 16 5 20 0 7 -11 32 -11 49 -1 7 5 12 3 12 -5 0 -10 2 -10 9 1 6
9 10 10 16 2 5 -9 10 -9 21 0 11 9 14 8 14 -2 0 -9 3 -10 8 -4 10 14 32 17 32
4 0 -8 5 -8 15 1 12 10 15 10 15 -1 0 -10 3 -10 12 -1 7 7 17 8 30 1 10 -5 18
-6 18 -1 0 5 7 9 15 9 8 0 15 -3 15 -7 0 -4 7 -7 15 -7 8 0 12 4 9 9 -3 4 0 8
5 8 6 0 11 -6 11 -12 0 -10 3 -9 9 1 6 9 10 10 16 2 5 -9 10 -9 21 0 11 9 14
8 14 -2 0 -12 2 -12 9 0 6 9 10 10 16 2 5 -9 10 -9 21 0 11 9 14 8 14 -2 0
-12 2 -12 9 -1 11 17 21 17 32 0 7 -11 9 -11 9 1 0 10 4 11 13 3 20 -17 23
-17 40 -3 14 11 17 11 17 0 0 -9 3 -10 8 -4 10 14 32 17 32 4 0 -8 4 -8 14 0
10 9 16 9 21 1 5 -8 11 -8 21 1 8 6 14 7 14 2 0 -6 12 -9 26 -7 15 1 38 -2 51
-7 14 -5 22 -5 19 0 -8 13 20 21 32 9 7 -7 16 -6 29 1 14 7 23 7 31 -1 9 -9
12 -9 12 0 0 16 27 15 33 0 4 -10 6 -10 6 0 1 7 5 10 11 7 6 -4 7 1 3 11 -3
10 -2 15 3 12 5 -4 9 5 9 18 0 23 -14 35 -16 14 -1 -5 -2 -15 -3 -22 0 -6 -10
-12 -21 -13 -16 -1 -21 5 -20 26 0 15 3 25 7 22 10 -5 10 11 1 21 -10 10 -11
46 -1 40 4 -3 8 -1 8 5 0 5 -4 13 -10 16 -5 3 -10 11 -10 17 0 5 9 0 19 -13
11 -13 15 -26 10 -27 -6 -3 -5 -10 2 -18 10 -12 9 -13 -6 -8 -15 6 -16 5 -4
-15 8 -11 17 -21 22 -21 4 0 5 4 2 10 -3 5 0 8 7 7 7 -2 10 -2 6 0 -5 3 -8 11
-8 19 0 9 4 13 9 9 5 -3 13 -1 16 5 4 6 1 9 -6 8 -8 -2 -13 9 -15 29 -1 18 1
31 5 29 3 -2 6 7 6 20 0 13 -3 24 -7 24 -8 0 -12 -16 -9 -32 0 -5 -4 -8 -9 -8
-7 0 -7 -7 0 -22 11 -22 10 -22 -4 -4 -11 13 -12 24 -6 36 5 10 6 20 3 24 -4
4 -12 -4 -19 -16 -12 -23 -12 -23 -11 4 1 14 5 24 10 21 9 -5 9 11 0 21 -10
10 -11 46 -1 40 4 -3 8 -1 8 5 0 5 -5 13 -10 16 -8 5 -7 11 0 20 10 12 -37 14
-287 15 -164 1 -309 2 -323 3 -16 1 -33 14 -49 37 -13 19 -31 41 -40 48 -14
11 -12 12 9 9 18 -3 24 -10 22 -23 -2 -11 0 -16 4 -11 4 4 16 0 26 -10 11 -9
18 -11 18 -5 0 7 -4 12 -10 12 -5 0 -10 6 -10 14 0 8 -7 17 -16 20 -8 3 -12
10 -9 16 3 5 1 10 -5 10 -7 0 -9 7 -6 16 3 8 2 12 -4 9 -6 -3 -10 -1 -10 4 0
6 -5 11 -10 11 -6 0 -4 -10 5 -23 13 -20 13 -24 1 -24 -8 0 -12 6 -9 14 3 7 0
13 -6 13 -6 0 -11 -5 -11 -12 0 -6 -3 -8 -6 -5 -4 4 1 18 10 32 9 14 12 25 6
25 -6 0 -8 5 -5 10 3 6 -1 13 -9 16 -9 3 -14 10 -11 14 3 5 -2 13 -10 18 -9 4
-17 18 -18 29 0 12 -6 21 -12 20 -5 -1 -9 5 -7 14 1 9 -5 19 -13 23 -9 3 -13
11 -9 17 4 8 3 9 -4 5 -7 -4 -12 -2 -12 4 0 6 -4 9 -10 5 -5 -3 -7 -12 -4 -20
4 -8 11 -12 17 -8 6 4 7 1 2 -7 -6 -9 -4 -11 5 -5 9 6 11 4 5 -5 -6 -9 -4 -11
6 -5 8 5 11 4 6 0 -4 -5 0 -17 10 -27 9 -10 13 -18 8 -18 -4 0 -2 -6 4 -14 10
-11 9 -14 -4 -12 -8 1 -23 13 -32 27 -9 13 -10 19 -3 12 23 -21 35 -15 15 7
-10 12 -25 18 -32 15 -8 -2 -12 -1 -8 4 7 13 -5 42 -15 36 -5 -3 -12 0 -16 6
-4 8 -3 9 4 5 6 -3 16 2 21 13 8 14 6 25 -9 44 -11 14 -19 31 -18 38 2 7 -3
13 -9 14 -7 0 -13 5 -14 10 -2 20 -23 36 -41 32 -22 -6 -34 11 -19 26 9 9 11
8 8 -3 -2 -8 -2 -12 0 -7 3 4 9 5 14 2 5 -4 6 1 3 9 -7 19 -25 21 -41 5 -8 -8
-13 -8 -17 0 -11 18 4 32 27 26 12 -2 16 -2 9 1 -6 3 -10 9 -7 14 6 10 -21 7
-31 -3 -4 -4 -12 -7 -18 -7 -6 0 -3 5 6 11 18 10 22 59 4 56 -6 -1 -10 5 -11
13 0 8 -8 16 -19 18 -11 3 -16 0 -11 -7 3 -6 11 -8 17 -5 6 4 8 2 5 -4 -9 -14
3 -43 14 -36 5 3 6 -2 3 -10 -8 -22 -13 -20 -24 10 -6 14 -14 22 -20 19 -5 -3
-7 0 -4 8 3 9 -4 22 -18 31 -12 9 -18 16 -12 16 6 0 11 18 11 40 0 21 -4 37
-9 34 -4 -3 -6 -9 -3 -14 7 -12 -5 -40 -17 -40 -6 0 -5 7 2 15 7 9 10 19 6 22
-4 4 -11 1 -15 -6 -6 -9 -11 -10 -15 -2 -4 6 -3 11 3 11 12 0 8 38 -7 66 -6
12 -8 25 -4 29 4 4 -3 2 -15 -6 -22 -13 -22 -35 0 -23 7 4 9 4 5 -1 -4 -4 -1
-13 7 -19 11 -8 12 -15 4 -26 -9 -12 -10 -12 -5 4 5 14 2 17 -9 12 -9 -3 -14
-2 -11 3 3 5 -1 14 -9 21 -7 6 -11 19 -8 27 4 11 2 14 -5 9 -8 -5 -10 -1 -5
10 5 13 3 16 -10 11 -11 -4 -14 -2 -10 8 3 8 -2 18 -11 21 -12 5 -13 9 -3 19
7 7 16 11 21 8 4 -3 3 -9 -3 -12 -8 -5 -5 -13 9 -26 20 -18 20 -18 17 3 -2 12
-11 30 -20 40 -9 10 -14 22 -10 27 5 4 2 5 -5 1 -7 -4 -20 -2 -29 6 -14 11
-16 11 -10 -4 4 -12 2 -15 -9 -11 -11 4 -12 8 -3 19 8 10 15 11 24 4 10 -8 15
-8 21 1 4 7 3 9 -4 5 -5 -3 -12 0 -15 6 -3 10 -9 10 -25 1 -18 -11 -20 -10
-17 13 1 13 -2 27 -6 30 -5 3 -9 -1 -9 -8 -1 -18 -24 23 -25 44 -1 14 1 15 12
6 10 -8 11 -13 2 -18 -8 -6 -8 -9 0 -14 6 -4 11 -2 11 5 0 7 6 4 14 -6 8 -11
11 -26 8 -34 -3 -9 -1 -12 6 -7 17 10 15 24 -8 48 -15 17 -17 24 -8 30 9 6 7
8 -7 6 -13 -2 -21 4 -23 17 -2 11 -10 27 -18 36 -8 9 -12 19 -9 22 3 4 -1 2
-8 -4 -9 -8 -8 -12 5 -20 19 -11 17 -41 -3 -47 -8 -2 -10 0 -4 5 26 21 15 37
-25 34 -11 0 -11 1 -2 5 10 5 10 9 1 20 -10 12 -9 13 5 8 9 -3 16 -1 16 5 0 6
-4 11 -10 11 -5 0 -9 3 -9 8 3 20 -2 32 -12 26 -7 -4 -8 -9 -1 -13 7 -4 5 -13
-4 -25 -12 -17 -13 -15 -9 19 5 35 4 37 -12 24 -17 -13 -17 -13 0 7 20 24 23
41 5 27 -15 -12 -48 -13 -48 -2 0 4 5 11 10 14 6 3 10 1 10 -4 0 -6 4 -11 9
-11 13 0 8 21 -11 49 -10 13 -15 28 -12 33 3 4 -2 5 -11 1 -13 -5 -14 -7 -3
-14 10 -7 11 -9 0 -9 -7 0 -10 -5 -6 -12 4 -6 3 -8 -4 -4 -6 3 -9 18 -6 31 2
14 -1 35 -8 48 -7 12 -11 25 -10 28 1 4 -8 5 -18 2 -16 -4 -19 -2 -14 13 5 15
4 16 -4 5 -13 -18 -3 -44 14 -37 7 3 16 1 18 -3 14 -22 -34 -2 -61 26 l-31 32
-78 -117z m181 19 c-3 -6 -11 -11 -16 -11 -5 0 -4 6 3 14 14 16 24 13 13 -3z
m53 -54 c8 -10 6 -13 -7 -13 -11 0 -17 6 -14 13 3 7 6 13 8 13 1 0 7 -6 13
-13z m212 -347 c-8 -5 -19 -10 -25 -10 -5 0 -3 5 5 10 8 5 20 10 25 10 6 0 3
-5 -5 -10z m307 -460 c2 -23 -13 -35 -23 -19 -4 8 -3 9 4 5 7 -4 12 -2 12 3 0
6 -6 11 -14 11 -8 0 -18 4 -21 10 -4 6 1 7 11 3 12 -4 15 -3 10 5 -4 7 -2 10
6 7 8 -3 14 -14 15 -25z m33 -13 c0 -2 -10 -12 -22 -23 l-23 -19 19 23 c18 21
26 27 26 19z m11 -60 c-6 -6 -16 -5 -28 2 -17 10 -17 10 0 11 12 0 16 4 11 13
-5 8 -2 7 10 -2 10 -9 13 -18 7 -24z m114 -166 c-3 -6 3 -14 12 -20 10 -6 13
-11 8 -11 -6 0 -17 6 -24 13 -11 10 -13 9 -8 -5 9 -25 0 -22 -14 3 -8 15 -8
19 0 15 6 -4 11 -2 11 3 0 6 5 11 11 11 5 0 8 -4 4 -9z"/>
<path d="M2595 2120 c3 -5 8 -10 11 -10 2 0 4 5 4 10 0 6 -5 10 -11 10 -5 0
-7 -4 -4 -10z"/>
<path d="M2438 1939 c0 -8 -2 -23 -2 -34 -1 -11 -5 -26 -9 -32 -5 -8 -4 -13 2
-13 15 0 32 35 28 59 -4 26 -16 39 -19 20z"/>
<path d="M2335 1776 c-21 -32 -28 -94 -10 -87 6 1 9 6 9 10 -1 3 -5 17 -8 31
l-7 25 15 -25 c9 -14 15 -19 16 -12 0 7 5 10 12 6 7 -4 8 -3 4 5 -4 6 -11 9
-16 6 -4 -3 -7 3 -5 12 2 10 4 25 4 33 1 13 2 13 11 0 6 -9 5 -17 -3 -22 -7
-4 -7 -8 -2 -8 6 0 17 5 25 10 11 7 11 10 2 10 -7 0 -11 4 -8 9 3 5 0 13 -7
19 -9 7 -18 1 -32 -22z"/>
<path d="M2259 1663 c-1 -5 -2 -15 -3 -23 0 -8 -7 -14 -15 -12 -12 3 -12 1 0
-14 11 -13 11 -18 2 -21 -7 -3 -13 -9 -13 -14 0 -6 8 -5 20 1 12 7 17 16 13
27 -4 11 -3 14 5 9 8 -5 10 -1 5 11 -6 16 -5 17 13 3 18 -14 18 -14 1 6 -9 11
-14 24 -10 27 3 4 1 7 -5 7 -7 0 -13 -3 -13 -7z"/>
<path d="M3250 1621 c0 -6 5 -13 10 -16 6 -3 10 1 10 9 0 9 -4 16 -10 16 -5 0
-10 -4 -10 -9z"/>
<path d="M979 1598 c-3 -6 -5 -58 -2 -58 11 0 43 43 38 50 -5 9 -33 14 -36 8z
m31 -14 c0 -8 -19 -13 -24 -6 -3 5 1 9 9 9 8 0 15 -2 15 -3z"/>
<path d="M3316 1533 c-6 -14 -5 -15 5 -6 7 7 10 15 7 18 -3 3 -9 -2 -12 -12z"/>
<path d="M3355 1440 c3 -5 12 -7 20 -3 21 7 19 13 -6 13 -11 0 -18 -4 -14 -10z"/>
<path d="M965 1380 c3 -5 8 -10 11 -10 2 0 4 5 4 10 0 6 -5 10 -11 10 -5 0 -7
-4 -4 -10z"/>
<path d="M2061 1323 c-5 -10 -11 -22 -13 -28 -1 -5 -8 -9 -14 -9 -15 2 -13
-44 2 -50 7 -3 10 3 7 15 -4 13 0 19 11 19 9 0 15 3 15 8 -1 4 -1 18 0 32 1
20 3 22 11 10 6 -9 10 -10 10 -3 0 20 -19 24 -29 6z"/>
<path d="M3430 1309 c0 -5 5 -7 10 -4 6 3 10 8 10 11 0 2 -4 4 -10 4 -5 0 -10
-5 -10 -11z"/>
<path d="M718 1200 l-33 -30 28 4 c15 3 34 12 43 20 8 9 21 16 27 16 13 0 -12
20 -25 20 -4 0 -22 -14 -40 -30z m15 -5 c-3 -9 -8 -14 -10 -11 -3 3 -2 9 2 15
9 16 15 13 8 -4z"/>
<path d="M1907 1116 c-4 -10 -1 -13 8 -9 8 3 12 9 9 14 -7 12 -11 11 -17 -5z"/>
<path d="M1809 968 c-8 -28 -5 -38 13 -38 16 0 18 3 9 13 -6 8 -8 17 -4 20 3
4 1 7 -5 7 -7 0 -12 -1 -13 -2z"/>
<path d="M1767 908 c4 -7 8 -21 8 -30 2 -16 0 -16 -15 -3 -14 12 -17 12 -27
-5 -10 -15 -9 -19 4 -24 9 -4 20 -2 23 5 4 6 11 10 16 10 16 -3 15 47 -1 53
-11 4 -14 2 -8 -6z"/>
<path d="M3756 817 c10 -27 41 -40 48 -21 3 9 2 12 -5 9 -6 -4 -19 1 -30 11
-18 16 -19 16 -13 1z"/>
<path d="M1675 800 c-3 -5 -1 -10 4 -10 6 0 11 5 11 10 0 6 -2 10 -4 10 -3 0
-8 -4 -11 -10z"/>
<path d="M1814 688 c-37 -46 -106 -120 -153 -166 -66 -64 -82 -85 -71 -92 8
-5 18 -7 22 -4 4 3 16 0 27 -6 14 -7 22 -7 26 0 5 8 11 7 21 -1 11 -9 14 -8
14 2 0 9 3 10 8 4 9 -13 32 -18 32 -7 0 5 7 9 15 9 8 0 15 -5 15 -11 0 -6 5
-4 10 4 9 13 10 13 10 0 0 -13 1 -13 10 0 8 12 10 12 10 1 0 -11 3 -11 15 -1
12 10 15 10 15 -1 0 -10 3 -10 12 -1 8 8 17 8 31 1 15 -9 18 -8 12 2 -6 8 -4
10 4 4 14 -8 132 -17 184 -14 6 0 22 -2 35 -5 13 -3 20 -1 17 5 -4 5 -10 7
-15 4 -5 -3 -12 0 -16 6 -4 7 -3 9 4 5 6 -3 13 -2 17 4 3 5 2 10 -2 10 -5 0
-9 11 -9 24 0 14 3 23 7 20 4 -2 7 5 6 16 -1 11 -6 20 -12 20 -5 0 -3 5 5 10
13 9 13 11 0 20 -8 5 -10 10 -5 10 6 0 11 9 11 20 0 11 -5 20 -11 20 -5 0 -3
5 5 10 13 9 13 11 0 20 -11 7 -11 10 -2 10 8 0 10 5 5 13 -11 18 -11 56 0 54
5 -1 12 4 14 11 3 8 -1 10 -13 5 -16 -6 -17 -5 -4 9 23 24 43 -1 22 -26 -16
-18 -16 -19 0 -13 22 8 35 -12 17 -24 -12 -7 -11 -9 1 -9 12 0 12 -2 2 -9 -11
-6 -11 -10 0 -19 10 -8 13 -1 14 33 0 24 -3 42 -8 39 -4 -3 -8 -1 -8 5 0 5 5
13 10 16 8 5 8 11 1 19 -6 7 -7 17 -3 21 4 5 0 4 -8 0 -20 -12 -50 -14 -50 -3
0 4 -51 8 -114 8 l-114 0 -68 -82z"/>
<path d="M4422 753 c-10 -4 -9 -9 4 -24 12 -13 13 -19 4 -19 -10 0 -10 -3 0
-15 11 -13 10 -14 -5 -9 -15 6 -16 5 -4 -15 16 -24 18 -25 39 -11 10 6 11 10
3 10 -7 0 -13 7 -13 16 0 8 4 13 9 9 5 -3 13 -1 16 5 4 6 1 9 -7 8 -8 -2 -13
6 -13 21 0 25 -11 33 -33 24z"/>
<path d="M2125 671 c1 -8 8 -17 16 -19 8 -3 11 -1 7 3 -4 5 -4 13 2 19 6 8 3
12 -9 12 -11 0 -18 -7 -16 -15z"/>
<path d="M2134 620 c0 -14 5 -19 15 -15 9 3 12 3 8 -1 -4 -4 -2 -13 4 -21 9
-10 8 -13 0 -13 -7 0 -9 -4 -6 -10 3 -5 0 -7 -7 -5 -9 4 -14 -2 -14 -15 0 -18
8 -24 28 -21 4 0 4 -7 1 -16 -4 -11 -8 -13 -11 -5 -2 7 -8 12 -14 12 -7 0 -6
-5 1 -14 9 -11 8 -15 -4 -20 -12 -4 -13 -10 -6 -25 6 -10 8 -21 5 -23 -3 -3 2
-8 11 -12 9 -3 13 -2 10 4 -3 6 1 10 9 10 9 0 16 4 16 9 0 5 -7 8 -16 7 -9 0
-19 6 -21 14 -4 12 -2 12 5 2 7 -10 11 -10 22 3 11 13 10 15 -6 9 -17 -5 -17
-4 -4 8 21 18 23 37 5 44 -8 3 -12 10 -9 15 3 5 9 7 13 5 11 -7 6 47 -7 72
-16 27 -28 28 -28 2z"/>
<path d="M2130 580 c0 -5 5 -10 10 -10 6 0 10 5 10 10 0 6 -4 10 -10 10 -5 0
-10 -4 -10 -10z"/>
<path d="M4417 476 c-3 -8 0 -17 8 -19 7 -3 12 0 11 8 -3 22 -13 27 -19 11z"/>
<path d="M1179 463 c-13 -16 -12 -17 3 -5 9 8 23 10 29 6 8 -4 9 -3 5 4 -10
17 -21 15 -37 -5z"/>
</g>
</svg>
